<svg width="22" height="22" viewBox="0 0 22 22" fill="none" xmlns="http://www.w3.org/2000/svg">
<path d="M2.05612 6.28282L10.5325 1.20082C10.675 1.11534 10.838 1.07019 11.0042 1.07019C11.1703 1.07019 11.3333 1.11534 11.4758 1.20082L19.944 6.28374C20.0119 6.32445 20.0681 6.38208 20.1072 6.451C20.1462 6.51992 20.1667 6.59778 20.1667 6.67699V18.3333C20.1667 18.5764 20.0701 18.8096 19.8982 18.9815C19.7263 19.1534 19.4932 19.25 19.25 19.25H2.75004C2.50693 19.25 2.27377 19.1534 2.10186 18.9815C1.92995 18.8096 1.83337 18.5764 1.83337 18.3333V6.67607C1.83336 6.59687 1.85387 6.519 1.89291 6.45008C1.93195 6.38116 1.98818 6.32354 2.05612 6.28282ZM3.66671 7.45524V17.4167H18.3334V7.45432L11.0037 3.05432L3.66671 7.45432V7.45524ZM11.055 12.5565L15.9097 8.46541L17.0904 9.86791L11.0679 14.9435L4.91704 9.87432L6.08304 8.45899L11.055 12.5565Z" fill="#555555"/>
</svg>
