<svg width="79" height="79" viewBox="0 0 79 79" fill="none" xmlns="http://www.w3.org/2000/svg">
<path d="M19.288 78.6773H38.5739V72.6447C38.5739 72.2308 38.915 71.8885 39.3395 71.8885H39.3483C46.2633 71.8885 51.8994 66.2523 51.8994 59.328C51.8994 55.8705 50.4856 52.7283 48.2172 50.4503C45.9392 48.1812 42.797 46.768 39.3395 46.768C38.9162 46.768 38.5739 46.4257 38.5739 46.0024V40.0962H33.4143C33.0193 47.5156 26.8592 53.4218 19.3501 53.4218C11.8411 53.4218 5.68224 47.5156 5.28591 40.0962H0.000797272L0.0014267 59.3902C0.0014267 70.024 8.65415 78.6762 19.2874 78.6762L19.288 78.6773ZM19.3508 55.7898C21.7644 55.7898 23.7265 57.6896 23.7265 60.0304C23.7265 62.3624 21.7638 64.2623 19.3508 64.2623C16.9377 64.2623 14.9757 62.3624 14.9757 60.0304C14.9751 57.6896 16.9377 55.7898 19.3508 55.7898Z" fill="#A4B3E3"/>
<path d="M6.79029 39.3394V39.3482C6.79029 46.2718 12.4277 51.8992 19.3509 51.8992C26.2745 51.8992 31.9114 46.2718 31.9114 39.3482V39.3394C31.9114 38.916 32.2537 38.5832 32.6676 38.5832H38.5833V33.4148C31.164 33.0197 25.2577 26.8597 25.2577 19.3506C25.2577 11.8415 31.164 5.6827 38.5833 5.2965V0.00125504H19.2877C8.6533 0.00125504 0.000102997 8.65398 0.000102997 19.2888V38.5829H6.0245C6.44781 38.5829 6.78946 38.9157 6.78946 39.339L6.79029 39.3394ZM18.6487 14.9742C20.9907 14.9742 22.8907 16.9369 22.8907 19.3493C22.8907 21.763 20.9908 23.725 18.6487 23.725C16.3167 23.725 14.4182 21.7623 14.4182 19.3493C14.4169 16.9369 16.3169 14.9742 18.6487 14.9742Z" fill="#A4B3E3"/>
<path d="M26.7789 19.3508C26.7789 26.2745 32.4063 31.9114 39.33 31.9114H39.3387C39.7621 31.9114 40.0949 32.2537 40.0949 32.677L40.0956 38.5832H45.2639C45.6602 31.1727 51.8191 25.2576 59.3282 25.2576C66.8372 25.2576 72.996 31.172 73.3924 38.5832H78.6775V19.2876C78.6775 8.65318 70.0248 -1.90735e-05 59.3915 -1.90735e-05H40.0959V6.03257C40.0959 6.44646 39.7536 6.78875 39.3397 6.78875H39.3309C32.4066 6.78938 26.7792 12.4261 26.7792 19.35L26.7789 19.3508ZM59.3279 14.4167C61.7409 14.4167 63.7036 16.3154 63.7036 18.6472C63.7036 20.9892 61.7409 22.8892 59.3279 22.8892C56.9149 22.8892 54.9522 20.9893 54.9522 18.6472C54.9522 16.3165 56.9149 14.4167 59.3279 14.4167Z" fill="#A4B3E3"/>
<path d="M71.8883 39.3394V39.3306C71.8883 32.4069 66.252 26.7795 59.3277 26.7795C52.4041 26.7795 46.7672 32.4069 46.7672 39.3306V39.3394C46.7672 39.7627 46.4249 40.0956 46.011 40.0956H40.0953V45.264C47.5146 45.6603 53.4208 51.8191 53.4208 59.3282C53.4208 66.8372 47.5146 72.996 40.0953 73.3829V78.6775H59.3909C70.0246 78.6775 78.6769 70.0248 78.6769 59.3915V40.0959H72.6531C72.2298 40.0959 71.8882 39.763 71.8882 39.3397L71.8883 39.3394ZM60.0299 63.7045C57.689 63.7045 55.7892 61.7418 55.7892 59.3288C55.7892 56.9158 57.689 54.9531 60.0299 54.9531C62.3619 54.9531 64.2617 56.9158 64.2617 59.3288C64.2617 61.7418 62.3619 63.7045 60.0299 63.7045Z" fill="#A4B3E3"/>
</svg>
