<svg width="84" height="85" viewBox="0 0 84 85" fill="none" xmlns="http://www.w3.org/2000/svg">
<path d="M54.5311 28.8792C55.9364 28.8933 57.3179 28.5237 58.5291 27.8108C59.7396 27.0979 60.733 26.0687 61.4023 24.8339V13.3979H47.665V24.8435C48.335 26.0765 49.3285 27.1031 50.5382 27.8141C51.7475 28.5257 53.1284 28.8933 54.5311 28.8792V28.8792Z" fill="#264ABC"/>
<path d="M22.7545 28.8759C24.1585 28.8893 25.54 28.5211 26.7499 27.8095C27.9598 27.0972 28.9532 26.0693 29.623 24.8356V13.397H15.8865V24.8363C16.5564 26.0699 17.5499 27.0972 18.7596 27.8088C19.9702 28.5211 21.3511 28.8893 22.7544 28.8759L22.7545 28.8759Z" fill="#264ABC"/>
<path d="M38.6411 28.8792C40.0457 28.8933 41.4273 28.5244 42.6378 27.8121C43.8483 27.0999 44.8417 26.0713 45.5116 24.8365V13.3986H31.7744V24.8422C32.445 26.0752 33.4379 27.1025 34.6476 27.8135C35.8575 28.525 37.2384 28.8933 38.641 28.8792L38.6411 28.8792Z" fill="#264ABC"/>
<path d="M70.4211 28.8809C71.8238 28.8956 73.2047 28.5273 74.4145 27.817C75.6244 27.1067 76.6184 26.0806 77.2896 24.8484V13.3983H63.5542V24.8446C64.2248 26.0776 65.2176 27.1042 66.4274 27.8152C67.6373 28.5268 69.0175 28.895 70.4208 28.881L70.4211 28.8809Z" fill="#264ABC"/>
<path d="M75.8779 11.2458L66.1233 0.865937C65.6025 0.31447 64.8781 0.000639467 64.1191 0H13.5914C12.8497 0.00128107 12.14 0.300386 11.6211 0.830078L1.4751 11.2457L75.8779 11.2458Z" fill="#264ABC"/>
<path d="M23.4711 54.207H35.7628V78.6986H23.4711V54.207Z" fill="#264ABC"/>
<path d="M65.8792 48.5404C60.2698 48.5442 54.9819 51.1561 51.5699 55.6088C48.1579 60.0608 47.0108 65.847 48.466 71.2642C49.9212 76.6815 53.8128 81.1137 58.9964 83.2575C64.1799 85.4006 70.0654 85.0118 74.9216 82.2046C79.7778 79.3973 83.0527 74.4911 83.7815 68.929C84.511 63.3677 82.612 57.7831 78.6441 53.8186C75.2604 50.4311 70.6669 48.5314 65.8791 48.5404L65.8792 48.5404ZM75.0575 61.828L64.0244 72.8611V72.8605C63.6043 73.2806 62.9234 73.2806 62.5033 72.8605L56.7017 67.0582V67.0588C56.2937 66.6361 56.2994 65.9655 56.7145 65.5505C57.1295 65.1355 57.8007 65.129 58.2228 65.537L63.2641 70.5777L73.5363 60.3055L73.5356 60.3062C73.7368 60.0999 74.0115 59.9827 74.2997 59.9808C74.5873 59.9782 74.864 60.0922 75.0677 60.2953C75.2714 60.499 75.3847 60.7757 75.3828 61.0639C75.3809 61.3515 75.2637 61.6269 75.0574 61.8273L75.0575 61.828Z" fill="#264ABC"/>
<path d="M13.7348 24.8424V13.3987H0V24.8501C0.671883 26.0817 1.66589 27.1079 2.8758 27.8175C4.0857 28.5272 5.46597 28.8942 6.8687 28.8795C8.27202 28.8936 9.65235 28.5246 10.8621 27.8137C12.0713 27.1021 13.0648 26.0753 13.7348 24.8425V24.8424Z" fill="#264ABC"/>
<path d="M51.5929 52.2968C55.9706 47.9191 62.1156 45.7926 68.2617 46.5291V30.8063C65.9514 30.3227 63.8954 29.0167 62.4748 27.1318C60.5731 29.5919 57.6391 31.0324 54.5302 31.0324C51.4205 31.0324 48.4865 29.5919 46.5855 27.1318C44.7056 29.6182 41.7575 31.065 38.6409 31.0324C35.5236 31.065 32.5761 29.6175 30.6962 27.1311C28.7946 29.5906 25.8612 31.0298 22.7522 31.0298C19.6439 31.0291 16.7104 29.5893 14.8096 27.1298C13.3902 29.0141 11.335 30.3195 9.026 30.8043V75.949C9.02728 76.6779 9.31678 77.3767 9.83239 77.8924C10.348 78.408 11.0467 78.6975 11.7757 78.6988H21.3197V53.1299C21.3197 52.5355 21.8013 52.0539 22.3957 52.0539H36.8395C37.4338 52.0539 37.9155 52.5355 37.9155 53.1299V78.6988H49.7076C46.7934 74.8072 45.3797 69.9951 45.7263 65.146C46.0728 60.2969 48.1557 55.7347 51.5925 52.2965L51.5929 52.2968Z" fill="#264ABC"/>
</svg>
