<svg width="20" height="20" viewBox="0 0 20 20" fill="none" xmlns="http://www.w3.org/2000/svg">
<path d="M19.75 7C19.7501 6.91907 19.7369 6.83864 19.711 6.76196L18.623 3.49695C18.3085 2.5507 17.704 1.72759 16.8951 1.14453C16.0862 0.561471 15.1141 0.248173 14.117 0.249025H5.883C4.88587 0.248173 3.91381 0.561471 3.10492 1.14453C2.29603 1.72759 1.69145 2.5507 1.37701 3.49695L0.289002 6.76196C0.263109 6.83864 0.249934 6.91907 0.25 7C0.253333 7.93908 0.610385 8.84245 1.25 9.53003V16C1.25106 16.9942 1.64652 17.9475 2.34955 18.6505C3.05258 19.3535 4.00576 19.7489 5 19.75H8.77698V16C8.77698 15.6685 8.90871 15.3505 9.14313 15.1161C9.37755 14.8817 9.69546 14.75 10.027 14.75C10.3585 14.75 10.6765 14.8817 10.9109 15.1161C11.1453 15.3505 11.277 15.6685 11.277 16V19.75H15C15.9942 19.7489 16.9474 19.3535 17.6505 18.6505C18.3535 17.9475 18.7489 16.9942 18.75 16V9.53101C19.3898 8.84312 19.7468 7.93941 19.75 7ZM2.79999 3.97095C3.0152 3.32359 3.42893 2.76057 3.98236 2.3617C4.53579 1.96282 5.2008 1.74845 5.883 1.74903H14.117C14.7992 1.74845 15.4642 1.96282 16.0176 2.3617C16.5711 2.76057 16.9848 3.32359 17.2 3.97095L18.247 7.11206C18.2249 7.68912 17.9791 8.23489 17.5615 8.63379C17.144 9.03269 16.5875 9.25335 16.01 9.24903C15.5216 9.25306 15.0428 9.1129 14.6337 8.84607C14.2245 8.57925 13.9033 8.19763 13.71 7.74903C13.6584 7.60257 13.5625 7.47581 13.4357 7.38623C13.3088 7.29666 13.1573 7.24869 13.002 7.24903C12.8461 7.24941 12.6941 7.2984 12.5673 7.38928C12.4406 7.48017 12.3454 7.60839 12.295 7.75598C12.1003 8.20165 11.7799 8.58086 11.373 8.84717C10.9661 9.11348 10.4903 9.25537 10.004 9.25537C9.51771 9.25537 9.04193 9.11348 8.63501 8.84717C8.22809 8.58086 7.90767 8.20165 7.71301 7.75598C7.66262 7.60839 7.56742 7.48017 7.44067 7.38928C7.31393 7.2984 7.16194 7.24941 7.00598 7.24903C6.85073 7.24884 6.69926 7.2968 6.57245 7.38635C6.44564 7.47591 6.34972 7.60266 6.29797 7.74903C6.10474 8.19763 5.78346 8.57925 5.37433 8.84607C4.9652 9.1129 4.48642 9.25306 3.99799 9.24903C3.42052 9.25335 2.8641 9.03269 2.44653 8.63379C2.02897 8.23489 1.78306 7.68912 1.76099 7.11206L2.79999 3.97095ZM15 18.25H12.777V16C12.777 15.2707 12.4873 14.5711 11.9716 14.0554C11.4558 13.5397 10.7563 13.25 10.027 13.25C9.29763 13.25 8.59818 13.5397 8.08246 14.0554C7.56673 14.5711 7.27698 15.2707 7.27698 16V18.25H5C4.40343 18.2495 3.83145 18.0123 3.40961 17.5905C2.98777 17.1686 2.75053 16.5966 2.75 16V10.521C3.14705 10.6682 3.56655 10.7457 3.98999 10.75C4.37103 10.332 4.83511 9.99802 5.35254 9.76953C5.86997 9.54104 6.42936 9.4231 6.995 9.4231C7.56063 9.4231 8.12002 9.54104 8.63745 9.76953C9.15488 9.99802 9.61897 10.332 10 10.75C10.381 10.332 10.8451 9.99802 11.3625 9.76953C11.88 9.54104 12.4394 9.4231 13.005 9.4231C13.5706 9.4231 14.13 9.54104 14.6475 9.76953C15.1649 9.99802 15.629 10.332 16.01 10.75C16.4334 10.7457 16.8529 10.6682 17.25 10.521V16C17.2492 16.5965 17.0119 17.1683 16.5901 17.5901C16.1683 18.0119 15.5965 18.2492 15 18.25Z" fill="#555555"/>
</svg>
