<svg width="14" height="19" viewBox="0 0 14 19" fill="none" xmlns="http://www.w3.org/2000/svg">
<path d="M0.333313 18.3333C0.333313 16.5652 1.03569 14.8695 2.28593 13.6193C3.53618 12.369 5.23187 11.6666 6.99998 11.6666C8.76809 11.6666 10.4638 12.369 11.714 13.6193C12.9643 14.8695 13.6666 16.5652 13.6666 18.3333H12C12 17.0072 11.4732 15.7355 10.5355 14.7978C9.59783 13.8601 8.32606 13.3333 6.99998 13.3333C5.6739 13.3333 4.40213 13.8601 3.46445 14.7978C2.52676 15.7355 1.99998 17.0072 1.99998 18.3333H0.333313ZM6.99998 10.8333C4.23748 10.8333 1.99998 8.59581 1.99998 5.83331C1.99998 3.07081 4.23748 0.833313 6.99998 0.833313C9.76248 0.833313 12 3.07081 12 5.83331C12 8.59581 9.76248 10.8333 6.99998 10.8333ZM6.99998 9.16665C8.84165 9.16665 10.3333 7.67498 10.3333 5.83331C10.3333 3.99165 8.84165 2.49998 6.99998 2.49998C5.15831 2.49998 3.66665 3.99165 3.66665 5.83331C3.66665 7.67498 5.15831 9.16665 6.99998 9.16665Z" fill="#555555"/>
</svg>
